<svg xmlns="http://www.w3.org/2000/svg" xml:space="preserve" style="enable-background:new 0 0 512 512" viewBox="0 0 512 512"><path d="M409.6-168.8c0-113.106-91.694-204.8-204.8-204.8S0-281.906 0-168.8 91.694 36 204.8 36s204.8-91.694 204.8-204.8" style="fill:#ffcc4d" transform="matrix(1.25 0 0 -1.25 0 45)"/><path d="M14.108-89.36c2.731-2.719 16.35-10.9 19.081-19.058s8.192-54.431 24.553-68.05c16.885-14.029 80.521-8.806 92.718-2.731 27.273 13.596 30.618 51.553 35.442 70.781 2.719 10.889 19.081 10.889 19.081 10.889s16.373 0 19.092-10.877c4.824-19.24 8.192-57.196 35.442-70.781 12.208-6.087 75.844-11.31 92.752 2.719 16.327 13.619 21.788 59.893 24.519 68.062 2.708 8.158 16.35 16.327 19.081 19.046 2.742 2.719 2.742 13.608 0 16.338-5.45 5.439-69.791 10.286-139.071 2.719-13.824-1.513-19.081-5.45-51.814-5.45-32.711 0-37.99 3.937-51.803 5.439C83.924-62.736 19.56-67.583 14.11-73.022c-2.721-2.731-2.721-13.619-.002-16.338" style="fill:#292f33" transform="matrix(1.25 0 0 -1.25 0 45)"/><path d="M311.012-232.846c-2.025 1.832-5.052 1.946-7.225.33-.444-.33-44.624-32.996-98.987-32.996-54.226 0-98.554 32.666-98.987 32.996a5.729 5.729 0 0 1-7.225-.33c-2.014-1.82-2.469-4.824-1.07-7.145 1.468-2.446 36.602-59.654 107.281-59.654s105.825 57.207 107.281 59.654a5.672 5.672 0 0 1-1.068 7.145" style="fill:#664500" transform="matrix(1.25 0 0 -1.25 0 45)"/></svg>
